ply
format ascii 1.0
comment author achrist3
comment File Generated with PlantGL 3D Viewer
element vertex 48
property float x
property float y
property float z
property uchar_t diffuse_red
property uchar_t diffuse_green
property uchar_t diffuse_blue
element face 48
property list uchar_t int vertex_indices 
end_header
-5.10341e-13 0 -0.1 65 45 15
1 0 -0.1 65 45 15
-3.60866e-13 0.0707107 -0.0707107 65 45 15
1 0.0707107 -0.0707107 65 45 15
2.60448e-24 0.1 5.10341e-13 65 45 15
1 0.1 -4.59307e-12 65 45 15
3.60866e-13 0.0707107 0.0707107 65 45 15
1 0.0707107 0.0707107 65 45 15
5.10341e-13 -1.02068e-12 0.1 65 45 15
1 -1.02068e-12 0.1 65 45 15
3.60866e-13 -0.0707107 0.0707107 65 45 15
1 -0.0707107 0.0707107 65 45 15
-7.81344e-24 -0.1 -1.53102e-12 65 45 15
1 -0.1 -6.63444e-12 65 45 15
-3.60866e-13 -0.0707107 -0.0707107 65 45 15
1 -0.0707107 -0.0707107 65 45 15
1 0 -0.1 65 45 15
2 0 -0.1 65 45 15
1 0.0707107 -0.0707107 65 45 15
2 0.0707107 -0.0707107 65 45 15
1 0.1 -4.59307e-12 65 45 15
2 0.1 -9.69648e-12 65 45 15
1 0.0707107 0.0707107 65 45 15
2 0.0707107 0.0707107 65 45 15
1 -1.02068e-12 0.1 65 45 15
2 -1.02068e-12 0.1 65 45 15
1 -0.0707107 0.0707107 65 45 15
2 -0.0707107 0.0707107 65 45 15
1 -0.1 -6.63444e-12 65 45 15
2 -0.1 -1.17378e-11 65 45 15
1 -0.0707107 -0.0707107 65 45 15
2 -0.0707107 -0.0707107 65 45 15
2 0 -0.1 65 45 15
3 0 -0.1 65 45 15
2 0.0707107 -0.0707107 65 45 15
3 0.0707107 -0.0707107 65 45 15
2 0.1 -9.69648e-12 65 45 15
3 0.1 -1.47999e-11 65 45 15
2 0.0707107 0.0707107 65 45 15
3 0.0707107 0.0707107 65 45 15
2 -1.02068e-12 0.1 65 45 15
3 -1.02068e-12 0.1 65 45 15
2 -0.0707107 0.0707107 65 45 15
3 -0.0707107 0.0707107 65 45 15
2 -0.1 -1.17378e-11 65 45 15
3 -0.1 -1.68413e-11 65 45 15
2 -0.0707107 -0.0707107 65 45 15
3 -0.0707107 -0.0707107 65 45 15
3 0 2 1
3 1 2 3
3 2 4 3
3 3 4 5
3 4 6 5
3 5 6 7
3 6 8 7
3 7 8 9
3 8 10 9
3 9 10 11
3 10 12 11
3 11 12 13
3 12 14 13
3 13 14 15
3 14 0 15
3 15 0 1
3 16 18 17
3 17 18 19
3 18 20 19
3 19 20 21
3 20 22 21
3 21 22 23
3 22 24 23
3 23 24 25
3 24 26 25
3 25 26 27
3 26 28 27
3 27 28 29
3 28 30 29
3 29 30 31
3 30 16 31
3 31 16 17
3 32 34 33
3 33 34 35
3 34 36 35
3 35 36 37
3 36 38 37
3 37 38 39
3 38 40 39
3 39 40 41
3 40 42 41
3 41 42 43
3 42 44 43
3 43 44 45
3 44 46 45
3 45 46 47
3 46 32 47
3 47 32 33
